<svg width="85" height="85" viewBox="0 0 85 85" fill="none" xmlns="http://www.w3.org/2000/svg">
<path fill-rule="evenodd" clip-rule="evenodd" d="M33.423 2.87906C11.7008 8.50547 -1.34938 30.6752 4.27603 52.3984C9.90245 74.1205 32.0722 87.1707 53.7953 81.5453C75.5185 75.9199 88.5677 53.7491 82.9423 32.026C77.3168 10.3038 55.1461 -2.74635 33.423 2.87906Z" fill="url(#paint0_radial_401_336)"/>
<path d="M10.7882 52.5185C11.2801 51.9683 12.127 51.9211 12.6771 52.4139C13.2273 52.9067 13.2746 53.7526 12.7817 54.3028C11.3837 55.8628 9.54005 57.1029 7.45504 57.6159C5.60639 58.0695 3.58575 57.9588 1.53795 57.0084C0.866077 56.6986 0.572384 55.901 0.882169 55.2291C1.19195 54.5572 1.98854 54.2636 2.66142 54.5733C4.11077 55.2472 5.52794 55.3287 6.81435 55.0129C8.3512 54.6347 9.73015 53.6993 10.7882 52.5185Z" fill="#2B2A29"/>
<path d="M37.1296 44.9184C37.6225 44.3682 38.4684 44.321 39.0185 44.8138C39.5687 45.3056 39.616 46.1525 39.1231 46.7027C37.7261 48.2617 35.8815 49.5028 33.7964 50.0148C31.9488 50.4694 29.9282 50.3587 27.8794 49.4073C27.2075 49.0975 26.9138 48.3009 27.2246 47.629C27.5344 46.9561 28.331 46.6635 29.0028 46.9732C30.4532 47.6461 31.8703 47.7276 33.1568 47.4118C34.6936 47.0346 36.0716 46.0992 37.1296 44.9184Z" fill="#2B2A29"/>
<path fill-rule="evenodd" clip-rule="evenodd" d="M21.6442 61.1783C25.7539 56.4692 36.366 63.1154 31.9194 69.3695C27.9667 74.9285 17.5255 65.8965 21.6442 61.1783Z" fill="#282829"/>
<path d="M20.8891 60.5177C22.6693 58.4769 25.4031 58.1882 27.9186 59.0039C28.9606 59.3419 29.9704 59.875 30.8525 60.5509C31.7466 61.2338 32.5161 62.0686 33.0662 63.001C34.2732 65.0437 34.4633 67.525 32.7374 69.952C31.115 72.2352 28.6538 72.545 26.2771 71.7252C25.2291 71.3632 24.1951 70.7707 23.2728 70.0315C22.3616 69.3013 21.5519 68.4202 20.9374 67.4717C19.4739 65.2127 19.0927 62.5745 20.8891 60.5177ZM27.296 60.917C25.4936 60.3326 23.5796 60.4895 22.4008 61.8393C21.3045 63.0945 21.6213 64.8335 22.6221 66.3774C23.1189 67.1449 23.7818 67.864 24.5331 68.4655C25.2734 69.0589 26.0991 69.5336 26.9309 69.8203C28.5009 70.3614 30.0981 70.1974 31.1009 68.7873C32.2857 67.1187 32.159 65.4199 31.3353 64.0249C30.9169 63.3168 30.3255 62.6781 29.6335 62.1481C28.9304 61.61 28.1268 61.1865 27.296 60.917Z" fill="#F9BEA7"/>
<path fill-rule="evenodd" clip-rule="evenodd" d="M46.9908 18.1675C61.6151 17.736 56.9231 20.6086 52.3377 24.9928C53.3726 25.0331 53.5848 25.1025 57.0548 25.4988C57.957 25.6828 58.5394 26.5639 58.3553 27.4661C58.1703 28.3693 57.2892 28.9507 56.387 28.7666C46.1027 27.616 43.8598 28.1299 51.3429 21.3961C49.7015 21.3941 47.8759 21.4776 46.9908 21.5037C46.0695 21.5037 45.3232 20.7564 45.3232 19.8351C45.3232 18.9148 46.0695 18.1675 46.9908 18.1675Z" fill="#6075FF"/>
<path fill-rule="evenodd" clip-rule="evenodd" d="M59.1579 6.13533C78.3475 3.77372 71.2194 3.95175 66.275 15.2458C69.5367 14.2682 73.6696 13.6486 75.5444 13.2885C76.5783 13.2885 77.4172 14.1274 77.4172 15.1613C77.4172 16.1953 76.5783 17.0341 75.5444 17.0341C62.8241 19.613 55.8801 26.029 66.0748 8.80572C63.7363 9.15272 61.0629 9.66668 59.1579 9.88091C58.124 9.88091 57.2852 9.04308 57.2852 8.00812C57.2852 6.97416 58.124 6.13533 59.1579 6.13533Z" fill="#6075FF"/>
<defs>
<radialGradient id="paint0_radial_401_336" cx="0" cy="0" r="1" gradientUnits="userSpaceOnUse" gradientTransform="translate(53.3989 26.8114) rotate(165.481) scale(128.794 128.793)">
<stop stop-color="#FDDED2"/>
<stop offset="1" stop-color="#F9C9B6"/>
</radialGradient>
</defs>
</svg>
