<svg width="18" height="15" viewBox="0 0 18 15" fill="none" xmlns="http://www.w3.org/2000/svg">
<path d="M17.067 8.03636V7.32H17.7084C17.8695 7.32 18 7.18568 18 7.02C18 6.85432 17.8695 6.72 17.7084 6.72H15.8423C15.6813 6.72 15.5508 6.85432 15.5508 7.02C15.5508 7.18568 15.6813 7.32 15.8423 7.32H16.4838V8H14.8898V1.67648C14.8898 1.25432 14.6189 0.89184 14.231 0.79504C12.1174 0.26748 9.83426 0 7.44492 0C5.05559 0 2.77243 0.26748 0.658886 0.79504C0.270933 0.89184 0 1.25432 0 1.67648V10.4435C0 10.8657 0.270933 11.2282 0.658886 11.325C1.73648 11.5939 2.85835 11.7949 4.01567 11.9277L3.77794 13.12H3.40173C2.89796 13.12 2.48812 13.5417 2.48812 14.06V14.7C2.48812 14.8657 2.61867 15 2.7797 15H12.1102C12.2712 15 12.4017 14.8657 12.4017 14.7V14.06C12.4017 13.5417 11.9919 13.12 11.4881 13.12H11.1119L10.8742 11.9277C12.0315 11.7949 13.1534 11.594 14.231 11.325C14.6189 11.2282 14.8898 10.8657 14.8898 10.4435V9.88H16.1728V10.22C16.1728 10.5619 16.4431 10.84 16.7754 10.84H17.3974C17.7297 10.84 18 10.5619 18 10.22V9.26C18 8.6686 17.6019 8.17136 17.067 8.03636V8.03636ZM7.44492 11.52C6.17727 11.52 4.91326 11.4385 3.6933 11.2812V9.73692C4.91295 9.83152 6.17303 9.88 7.44492 9.88C8.71674 9.88 9.97702 9.83148 11.1965 9.73688V11.2812C9.97659 11.4385 8.71258 11.52 7.44492 11.52ZM7.44492 12.12C7.99076 12.12 8.53072 12.1053 9.06469 12.0775L9.27253 13.12H5.61732L5.82516 12.0775C6.35913 12.1053 6.89909 12.12 7.44492 12.12ZM0.583153 3.39736C0.601737 3.37532 0.663706 3.33372 0.770384 3.31744C1.12689 3.26308 1.49423 3.2128 1.86609 3.1672V4.598C1.47437 4.61528 1.08715 4.6344 0.711914 4.6552C0.679413 4.657 0.634549 4.65952 0.583153 4.66484V3.39736V3.39736ZM0.583153 5.27116C0.624674 5.26436 0.677624 5.258 0.743326 5.25436C1.10846 5.23408 1.48506 5.21544 1.86609 5.19852V6.92148C1.48502 6.90456 1.10846 6.88588 0.743326 6.86564C0.677624 6.862 0.624713 6.85568 0.583153 6.84884V5.27116V5.27116ZM0.583153 7.45516C0.634549 7.46048 0.679413 7.463 0.711914 7.4648C1.08715 7.4856 1.47437 7.50472 1.86609 7.52204V8.95276C1.4947 8.90724 1.12716 8.857 0.770384 8.8026C0.663706 8.78632 0.601737 8.74472 0.583153 8.72268V7.45516V7.45516ZM2.44924 2.82928C2.44924 2.82856 2.44924 2.82788 2.44924 2.82716V1.02832C2.66765 0.98976 2.88801 0.95368 3.11015 0.9202V4.84684C3.11015 4.8478 3.11007 4.84872 3.11011 4.84968C3.11011 4.84992 3.11015 4.85016 3.11015 4.8504V11.1998C2.88801 11.1663 2.66765 11.1302 2.44924 11.0916V2.82928V2.82928ZM11.1965 6.98752C9.97752 7.0222 8.71709 7.04 7.44492 7.04C6.17237 7.04 4.91213 7.0222 3.6933 6.98752V5.13244C4.91248 5.09776 6.17272 5.07996 7.44492 5.07996C8.71713 5.07996 9.97737 5.09776 11.1965 5.13244V6.98752ZM3.6933 7.58776C4.91248 7.62228 6.1726 7.64 7.44492 7.64C8.71686 7.64 9.97717 7.62228 11.1965 7.58776V9.13516C9.97795 9.23088 8.71744 9.28 7.44492 9.28C6.17233 9.28 4.91202 9.23088 3.6933 9.13516V7.58776V7.58776ZM11.1965 4.53224C9.97705 4.49772 8.7169 4.48 7.44492 4.48C6.17295 4.48 4.91283 4.49772 3.6933 4.53224V2.98484C4.9119 2.88912 6.17241 2.84 7.44492 2.84C8.71744 2.84 9.97795 2.88912 11.1965 2.98484V4.53224ZM11.7797 0.9202C12.0018 0.95368 12.2222 0.98972 12.4406 1.02832V2.8272C12.4406 2.82792 12.4406 2.8286 12.4406 2.82932V11.0917C12.2222 11.1303 12.0018 11.1664 11.7797 11.1998V0.9202V0.9202ZM13.0238 5.19852C13.4048 5.21544 13.7814 5.23408 14.1465 5.25436C14.2122 5.258 14.2651 5.26432 14.3067 5.27116V6.84888C14.2652 6.85568 14.2122 6.86204 14.1465 6.86568C13.7814 6.88596 13.4048 6.9046 13.0238 6.92152V5.19852V5.19852ZM14.3067 4.66484C14.2553 4.65952 14.2104 4.657 14.1779 4.6552C13.8027 4.6344 13.4154 4.61528 13.0238 4.598V3.1672C13.3956 3.2128 13.763 3.26308 14.1195 3.31744C14.2261 3.33372 14.2881 3.37532 14.3067 3.39736V4.66484V4.66484ZM13.0238 7.522C13.4154 7.50472 13.8027 7.4856 14.1779 7.46476C14.2104 7.46296 14.2553 7.46044 14.3067 7.45512V8.3V8.72264C14.2881 8.74468 14.2261 8.78628 14.1195 8.80256C13.7629 8.85696 13.3955 8.90724 13.0238 8.9528V7.522V7.522ZM14.3067 1.67648V2.74508C14.2737 2.73672 14.24 2.72924 14.205 2.72392C13.821 2.66536 13.4246 2.61164 13.0238 2.5632V1.13844C13.3869 1.2114 13.7443 1.29096 14.0935 1.37812C14.217 1.40896 14.3067 1.53444 14.3067 1.67648V1.67648ZM11.1965 0.83876V2.38312C9.97702 2.28852 8.71674 2.24 7.44492 2.24C6.17311 2.24 4.91283 2.28852 3.6933 2.38312V0.83876C4.91326 0.68152 6.17727 0.6 7.44492 0.6C8.71258 0.6 9.97659 0.68152 11.1965 0.83876V0.83876ZM0.796354 1.37812C1.14559 1.29096 1.5029 1.21136 1.86609 1.13844V2.5632C1.46523 2.61164 1.0688 2.66536 0.684855 2.72392C0.649866 2.72924 0.616199 2.73672 0.583153 2.74508V1.67648C0.583153 1.53444 0.672803 1.40896 0.796354 1.37812V1.37812ZM0.583153 10.4435V9.37492C0.616199 9.38328 0.649866 9.39076 0.684855 9.39608C1.06919 9.45468 1.46574 9.50836 1.86609 9.55676V10.9816C1.5029 10.9086 1.14559 10.829 0.796354 10.7419C0.672803 10.711 0.583153 10.5856 0.583153 10.4435V10.4435ZM4.5989 11.9881C4.81063 12.008 5.02305 12.0264 5.23695 12.0418L5.022 13.12H4.37326L4.5989 11.9881V11.9881ZM11.8186 14.06V14.4H3.07127V14.06C3.07127 13.8725 3.21951 13.72 3.40173 13.72H11.4881C11.6703 13.72 11.8186 13.8725 11.8186 14.06ZM10.5166 13.12H9.86785L9.6529 12.0418C9.8668 12.0264 10.0793 12.008 10.2909 11.9881L10.5166 13.12V13.12ZM14.3067 10.4435C14.3067 10.5856 14.217 10.711 14.0935 10.7419C13.7443 10.829 13.3869 10.9086 13.0238 10.9816V9.5568C13.4245 9.50836 13.8209 9.45468 14.205 9.39608C14.24 9.39076 14.2737 9.38328 14.3067 9.37492V9.58V10.4435V10.4435ZM17.4168 10.22C17.4168 10.231 17.4081 10.24 17.3974 10.24H16.7754C16.7646 10.24 16.7559 10.231 16.7559 10.22V9.58C16.7559 9.41432 16.6254 9.28 16.4644 9.28H14.8898V8.6H16.7754C17.1291 8.6 17.4168 8.89608 17.4168 9.26V10.22Z" fill="#DB6146"/>
</svg>
