<svg width="11" height="16" viewBox="0 0 11 16" fill="none" xmlns="http://www.w3.org/2000/svg">
<path d="M8.08959 9.96937H4.77796V8.20904L4.94773 8.13477C5.07931 8.07747 5.1435 7.92733 5.09363 7.79257L2.54598 0.860544C2.4213 0.520999 2.16187 0.247771 1.82869 0.105587C1.49604 -0.036598 1.11989 -0.0350064 0.788305 0.1093C0.456718 0.253607 0.199407 0.528957 0.077383 0.869563C-0.044641 1.21017 -0.0218279 1.58579 0.142109 1.90836L3.4861 8.49394C3.53172 8.58413 3.62245 8.63666 3.71794 8.63931V9.96937H2.86165C2.61336 9.96937 2.41176 10.1704 2.41176 10.4193V13.4205C2.41176 13.6688 2.61283 13.8704 2.86165 13.8704H6.03056C6.27939 13.8704 6.48099 13.6694 6.48099 13.4205V11.561H8.09118C8.42436 11.561 8.69546 11.8321 8.69546 12.1653V12.7064C8.69546 12.9547 8.89653 13.1563 9.14589 13.1563H9.83824C10.0871 13.1563 10.2881 12.9552 10.2881 12.7064V12.1653C10.2855 10.9546 9.29975 9.96937 8.08959 9.96937Z" fill="#DB6146"/>
<path d="M9.56974 13.6455C9.21216 13.6455 8.92249 14.9962 8.92249 15.3543C8.92249 15.7114 9.21216 16.0005 9.56974 16.0005C9.9268 16.0005 10.2165 15.7109 10.2165 15.3538C10.2165 14.9957 9.9268 13.6455 9.56974 13.6455Z" fill="#DB6146"/>
</svg>
