<svg width="55" height="117" viewBox="0 0 55 117" fill="none" xmlns="http://www.w3.org/2000/svg">
<path d="M53.3609 11.9962C53.3571 7.6103 49.788 4.04319 45.4011 4.04319C45.1532 4.04319 44.9018 4.05684 44.6451 4.08463C43.1877 2.76251 41.3061 2.0216 39.3363 2.0216C38.5184 2.0216 37.716 2.15047 36.9372 2.40595C35.4551 0.877625 33.4224 0 31.25 0C29.823 0 28.4296 0.39219 27.2068 1.1235C25.9837 0.39219 24.5906 0 23.1636 0C20.9909 0 18.9582 0.877625 17.4763 2.40595C16.6975 2.15047 15.8952 2.0216 15.0772 2.0216C13.1074 2.0216 11.2255 2.76251 9.76848 4.08463C9.51149 4.05684 9.2603 4.04319 9.01241 4.04319C4.68897 4.04319 1.1623 7.50846 1.05743 11.8069C0.873461 12.8548 -0.134307 19.0515 0.0150388 28.2018C0.163121 37.2754 1.53958 51.0721 7.25412 65.2723C10.7315 73.9133 12.6303 81.7417 13.0589 89.2049C13.4384 95.8138 12.7013 102.264 10.7391 109.504C10.2468 111.32 10.616 113.213 11.7517 114.698C12.8711 116.161 14.5713 117 16.4162 117H37.969C39.8139 117 41.5141 116.161 42.6336 114.698C43.7692 113.213 44.1384 111.32 43.6461 109.504C41.6839 102.264 40.9468 95.8138 41.3264 89.2049C41.7549 81.7417 43.6537 73.9133 47.1311 65.2723C52.8459 51.0721 54.2221 37.2752 54.3702 28.2018C54.513 19.4968 53.6078 13.4651 53.3609 11.9962ZM9.01241 7.83368C9.30528 7.83368 9.6156 7.87563 9.98884 7.96585C10.6906 8.13515 11.4285 7.89105 11.8907 7.33561C12.6963 6.36727 13.8577 5.81209 15.0772 5.81209C15.7716 5.81209 16.4569 6.00136 17.1147 6.37409C17.9939 6.87267 19.109 6.59344 19.6503 5.74032C20.4243 4.51928 21.7376 3.79049 23.1636 3.79049C24.1749 3.79049 25.1602 4.17636 25.9382 4.87735C26.6592 5.52679 27.7544 5.52679 28.4751 4.87735C29.2531 4.17662 30.2387 3.79049 31.2497 3.79049C32.6757 3.79049 33.989 4.51928 34.763 5.74032C35.304 6.59394 36.4197 6.87292 37.2986 6.37409C37.9564 6.00111 38.6419 5.81209 39.3361 5.81209C40.5556 5.81209 41.717 6.36727 42.5226 7.33561C42.9846 7.89105 43.7217 8.13566 44.4245 7.96585C44.7979 7.87563 45.1083 7.83368 45.4009 7.83368C47.0171 7.83368 48.4186 8.76008 49.1103 10.108H37.315C36.2683 10.108 35.4198 10.9565 35.4198 12.0032L35.4195 24.1328C35.4195 25.3172 34.456 26.2807 33.2716 26.2807C32.0872 26.2807 31.1236 25.3172 31.1236 24.1328L31.1229 12.1384C31.1221 10.6485 29.989 10.108 29.2276 10.108H21.142C20.0953 10.108 19.2467 10.9565 19.2467 12.0032V36.2624C19.2467 37.4468 18.2832 38.4103 17.0988 38.4103C15.9144 38.4103 14.9508 37.4468 14.9508 36.2624V12.0032C14.9508 10.9565 14.1023 10.108 13.0556 10.108H5.30328C5.99467 8.76008 7.39589 7.83368 9.01241 7.83368ZM4.57652 13.8985H11.1601V34.3671H4.10928C3.38959 24.5932 4.15805 17.0163 4.57652 13.8985ZM43.6153 63.8572C36.8018 80.7878 35.7169 94.7358 39.9881 110.496C40.1687 111.163 40.0358 111.855 39.6234 112.394C39.3907 112.699 38.8661 113.21 37.9695 113.21H16.4167C15.5202 113.21 14.9956 112.699 14.7628 112.394C14.3502 111.855 14.2173 111.163 14.3982 110.496C18.6693 94.7358 17.5845 80.7878 10.7709 63.8572C7.14571 54.8487 5.30783 45.9549 4.45674 38.1576H11.4727C12.2657 40.5052 14.4874 42.2008 17.0993 42.2008C19.7112 42.2008 21.9329 40.5052 22.7259 38.1576H49.9358C49.0837 45.9491 47.2441 54.8401 43.6153 63.8572ZM50.2835 34.3671H23.0372V13.8985H27.3329C27.3331 16.5134 27.3331 21.2409 27.3331 24.1328C27.3331 27.4073 29.9971 30.0712 33.2716 30.0712C36.546 30.0712 39.21 27.4073 39.21 24.1328L39.2103 13.8985H49.8105C50.2315 17.0143 51.0047 24.5879 50.2835 34.3671Z" fill="#FFA800"/>
<path d="M33.2715 105.123H21.142C20.0953 105.123 19.2467 105.972 19.2467 107.018C19.2467 108.065 20.0953 108.914 21.142 108.914H33.2715C34.3182 108.914 35.1668 108.065 35.1668 107.018C35.1668 105.972 34.3182 105.123 33.2715 105.123Z" fill="#FFA800"/>
<path d="M32.629 78.542C32.7695 78.5735 32.9097 78.589 33.048 78.589C33.9142 78.589 34.6961 77.9911 34.8949 77.1107C35.9644 72.3728 37.5134 67.5131 39.63 62.2532C40.309 60.5657 40.9456 58.822 41.522 57.0708C41.8492 56.0765 41.3084 55.0053 40.3143 54.678C39.3197 54.3508 38.2488 54.8916 37.9215 55.8857C37.3706 57.5598 36.7624 59.2259 36.1137 60.8381C33.9203 66.2881 32.3123 71.338 31.1974 76.276C30.967 77.2969 31.6078 78.3115 32.629 78.542Z" fill="#FFA800"/>
<path d="M41.5404 50.2404C41.6819 50.2725 41.8231 50.2879 41.9621 50.2879C42.8274 50.2879 43.6087 49.6915 43.8086 48.8124C44.1164 47.4582 44.3994 46.0703 44.6504 44.6873C44.8371 43.6571 44.1538 42.6708 43.1238 42.484C42.0943 42.2958 41.1075 42.9806 40.9207 44.0106C40.6797 45.339 40.4078 46.672 40.1124 47.9722C39.8804 48.9931 40.5197 50.0084 41.5404 50.2404Z" fill="#FFA800"/>
</svg>
