<svg width="14" height="14" viewBox="0 0 14 14" fill="none" xmlns="http://www.w3.org/2000/svg">
<path d="M7 0C3.136 0 0 3.136 0 7C0 10.864 3.136 14 7 14C10.864 14 14 10.864 14 7C14 3.136 10.864 0 7 0ZM7 12.6C3.913 12.6 1.4 10.087 1.4 7C1.4 3.913 3.913 1.4 7 1.4C10.087 1.4 12.6 3.913 12.6 7C12.6 10.087 10.087 12.6 7 12.6ZM7.217 6.398C5.978 6.083 5.579 5.74 5.579 5.229C5.579 4.641 6.132 4.228 7.049 4.228C8.015 4.228 8.379 4.69 8.407 5.376H9.604C9.569 4.438 8.995 3.577 7.861 3.297V2.1H6.23V3.283C5.173 3.507 4.326 4.193 4.326 5.25C4.326 6.503 5.369 7.133 6.888 7.497C8.253 7.819 8.526 8.302 8.526 8.806C8.526 9.177 8.253 9.779 7.056 9.779C5.936 9.779 5.495 9.275 5.432 8.631H4.228C4.298 9.821 5.18 10.493 6.23 10.71V11.9H7.868V10.731C8.932 10.528 9.772 9.919 9.779 8.792C9.772 7.252 8.449 6.72 7.217 6.398Z" fill="#DB6146"/>
</svg>
