<svg width="14" height="14" viewBox="0 0 14 14" fill="none" xmlns="http://www.w3.org/2000/svg">
<path d="M12.0202 4.89744H11.7672C12.3705 4.40433 12.7565 3.65484 12.7565 2.81663C12.7565 1.33517 11.5513 0.129948 10.0699 0.129948C9.33527 0.129948 8.63319 0.434601 8.12995 0.959106C7.92197 0.898816 7.70646 0.868412 7.48571 0.868412C7.06222 0.868412 6.65641 0.98112 6.30222 1.19239C5.80024 0.533591 5.00988 0.129995 4.16304 0.129995C3.11078 0.129995 2.16411 0.743968 1.72733 1.68343C0.725219 1.94721 0 2.86518 0 3.92442C0 5.03051 0.779051 5.95753 1.81712 6.18686V11.5603C1.81712 12.8339 2.85322 13.87 4.12684 13.87H8.47886C9.75244 13.87 10.7886 12.8339 10.7886 11.5603V11.461H12.0202C13.1119 11.461 14 10.5729 14 9.48129V6.87729C14 5.78562 13.1119 4.89744 12.0202 4.89744ZM3.81384 4.53297C3.66413 4.53297 3.5214 4.60443 3.43189 4.72817C3.17343 5.08567 2.75677 5.29915 2.31721 5.29915C1.55928 5.29915 0.942667 4.6824 0.942667 3.92442C0.942667 3.23927 1.45383 2.65372 2.13163 2.56255C2.30826 2.5388 2.45641 2.41737 2.51444 2.2489C2.75668 1.54531 3.41921 1.07266 4.16304 1.07266C4.83995 1.07266 5.46137 1.47022 5.74608 2.08547C5.81094 2.22561 5.94038 2.32512 6.09255 2.35171C6.2448 2.37867 6.40022 2.3288 6.50887 2.21906C6.76916 1.95603 7.1161 1.81113 7.48571 1.81113C7.69151 1.81113 7.8894 1.85558 8.07409 1.94325C8.27933 2.04074 8.52459 1.97795 8.65784 1.7942C8.9855 1.34243 9.5134 1.07266 10.07 1.07266C11.0315 1.07266 11.8137 1.85506 11.8137 2.81668C11.8137 3.77829 11.0315 4.56069 10.07 4.56069C9.67914 4.56069 9.30948 4.43384 9.00092 4.19381C8.8216 4.05433 8.56828 4.06263 8.39835 4.21352C8.14644 4.43742 7.82237 4.56069 7.48576 4.56069C7.00943 4.56069 6.57368 4.31901 6.32018 3.91428C6.2382 3.78338 6.09731 3.70099 5.94316 3.69368C5.78869 3.68557 5.64082 3.75501 5.54683 3.87742C5.4105 4.05504 5.24298 4.20343 5.04881 4.31849C4.90561 4.40339 4.81784 4.55748 4.81784 4.72398V6.29334C4.81784 6.32742 4.78795 6.35731 4.75397 6.35731H4.48636C4.45233 6.35731 4.42249 6.32738 4.42249 6.29334V5.02146C4.42249 4.7788 4.23823 4.57568 3.99669 4.5523L3.81384 4.53297ZM9.84582 11.5603C9.84582 12.3141 9.2326 12.9273 8.47886 12.9273H4.12684C3.3731 12.9273 2.75984 12.3141 2.75984 11.5603V6.19836C3.01382 6.14853 3.25719 6.05694 3.47959 5.92788V6.29339C3.47959 6.84853 3.93117 7.30012 4.48618 7.30012H4.75378C5.30883 7.30012 5.76041 6.84853 5.76041 6.29339V4.97631C5.80609 4.94251 5.85049 4.90744 5.89381 4.871C6.31829 5.27398 6.88258 5.5035 7.48566 5.5035C7.92782 5.5035 8.35706 5.37745 8.72601 5.14332C9.06875 5.34266 9.4483 5.4615 9.84582 5.49398V11.5603ZM13.0573 9.48129C13.0573 10.0531 12.5921 10.5183 12.0202 10.5183H10.7886V5.84025H12.0202C12.5921 5.84025 13.0573 6.30546 13.0573 6.87729V9.48129Z" fill="#DB6146"/>
<path d="M8.37092 7.81339C8.11062 7.81339 7.89954 8.02443 7.89954 8.28467V11.7318C7.89954 11.9922 8.11062 12.2032 8.37092 12.2032C8.63121 12.2032 8.8423 11.9922 8.8423 11.7318V8.28467C8.8423 8.02438 8.63121 7.81339 8.37092 7.81339Z" fill="#DB6146"/>
<path d="M6.30287 7.81339C6.04263 7.81339 5.83154 8.02443 5.83154 8.28467V11.7318C5.83154 11.9922 6.04263 12.2032 6.30287 12.2032C6.56317 12.2032 6.77425 11.9922 6.77425 11.7318V8.28467C6.77425 8.02438 6.56317 7.81339 6.30287 7.81339Z" fill="#DB6146"/>
<path d="M4.23493 7.81339C3.97463 7.81339 3.76355 8.02443 3.76355 8.28467V11.7318C3.76355 11.9922 3.97463 12.2032 4.23493 12.2032C4.49518 12.2032 4.70627 11.9922 4.70627 11.7318V8.28467C4.70627 8.02438 4.49518 7.81339 4.23493 7.81339Z" fill="#DB6146"/>
</svg>
