<svg width="14" height="16" viewBox="0 0 14 16" fill="none" xmlns="http://www.w3.org/2000/svg">
<path d="M9.33333 0H4.66667V1.52454H9.33333V0V0ZM6.22222 9.90948H7.77778V5.33587H6.22222V9.90948ZM12.4678 4.86327L13.5722 3.78085C13.2378 3.39209 12.8722 3.0262 12.4756 2.70605L11.3711 3.78847C10.1656 2.84326 8.64889 2.27918 7 2.27918C3.13444 2.27918 0 5.35112 0 9.13959C0 12.9281 3.12667 16 7 16C10.8733 16 14 12.9281 14 9.13959C14 7.53121 13.4244 6.04478 12.4678 4.86327ZM7 14.4831C3.99 14.4831 1.55556 12.0972 1.55556 9.14721C1.55556 6.19724 3.99 3.81134 7 3.81134C10.01 3.81134 12.4444 6.19724 12.4444 9.14721C12.4444 12.0972 10.01 14.4831 7 14.4831Z" fill="#6BA52B"/>
</svg>
